<?xml version="1.0" standalone="no"?>
<!DOCTYPE svg PUBLIC "-//W3C//DTD SVG 20010904//EN"
 "http://www.w3.org/TR/2001/REC-SVG-20010904/DTD/svg10.dtd">
<svg version="1.0" xmlns="http://www.w3.org/2000/svg"
 width="200.000000pt" height="200.000000pt" viewBox="0 0 200.000000 200.000000"
 preserveAspectRatio="xMidYMid meet">

<g transform="translate(0.000000,200.000000) scale(0.100000,-0.100000)"
fill="#000000" stroke="none">
<path d="M1053 1463 l-19 -58 -95 -49 -95 -49 -40 19 c-28 14 -47 34 -69 74
-30 53 -57 71 -63 40 -1 -8 12 -40 30 -70 28 -46 44 -60 98 -88 58 -29 68 -39
94 -90 56 -112 98 -132 190 -88 30 14 59 26 65 26 5 0 25 -29 45 -64 36 -64
50 -77 74 -69 22 8 12 47 -34 126 -49 84 -55 87 -119 62 -15 -6 -13 0 10 23
l30 31 72 -21 c78 -23 103 -20 103 12 0 23 -10 28 -118 58 l-74 21 -42 -40
c-24 -21 -47 -39 -53 -39 -5 0 -19 21 -32 47 -22 45 -22 48 -6 58 45 26 68 55
85 109 11 32 17 62 14 67 -14 23 -34 4 -51 -48z"/>
<path d="M823 1434 c-15 -24 -15 -29 -2 -53 29 -51 109 -33 109 24 0 56 -76
76 -107 29z"/>
<path d="M180 793 c34 -12 40 -36 40 -153 0 -117 -6 -141 -40 -153 -8 -3 19
-5 60 -5 41 0 65 3 52 5 -28 5 -42 39 -42 99 0 41 2 44 28 44 32 0 45 -8 60
-35 9 -16 11 -9 12 45 0 58 -2 62 -13 40 -14 -28 -75 -47 -83 -25 -3 7 -4 39
-2 71 l3 59 59 0 c52 -1 61 -4 83 -30 25 -29 25 -29 19 -5 -3 14 -6 31 -6 38
0 9 -31 12 -122 11 -68 0 -116 -3 -108 -6z"/>
<path d="M551 778 c-33 -87 -103 -255 -109 -264 -4 -6 -16 -16 -27 -22 -17
-10 -11 -11 35 -11 42 0 51 2 38 10 -22 12 -23 41 -3 79 14 28 20 30 71 30 53
0 55 -1 70 -35 19 -48 18 -64 -8 -75 -17 -6 -3 -9 52 -9 55 0 69 3 52 9 -24
10 -50 61 -113 222 -19 49 -37 88 -42 88 -4 0 -11 -10 -16 -22z m31 -96 c26
-68 24 -72 -25 -72 -24 0 -46 3 -49 6 -3 3 6 32 20 65 14 32 28 57 31 54 3 -3
13 -27 23 -53z"/>
<path d="M778 790 c21 -9 22 -14 22 -149 l0 -139 -27 -10 c-21 -8 5 -11 108
-11 149 -1 149 -1 149 57 l-1 27 -15 -28 c-25 -46 -107 -63 -152 -31 -21 14
-22 22 -22 139 0 117 1 125 22 139 21 15 19 16 -42 15 -49 0 -60 -2 -42 -9z"/>
<path d="M1088 790 c21 -9 22 -14 22 -149 l0 -139 -27 -10 c-21 -8 5 -11 108
-11 134 -1 137 0 143 22 3 12 6 31 5 42 0 17 -2 16 -15 -7 -8 -15 -23 -32 -34
-38 -28 -15 -93 -12 -118 6 -21 14 -22 22 -22 139 0 117 1 125 22 139 21 15
19 16 -42 15 -49 0 -60 -2 -42 -9z"/>
<path d="M1588 790 c21 -9 22 -13 22 -150 0 -137 -1 -141 -22 -150 -16 -6 20
-9 110 -9 l132 -1 0 43 -1 42 -15 -27 c-19 -35 -43 -48 -92 -48 -55 0 -72 22
-72 93 0 56 1 57 28 57 32 0 45 -8 60 -35 10 -17 11 -10 12 39 0 57 0 58 -17
37 -10 -11 -33 -24 -50 -27 l-33 -6 0 71 0 71 51 0 c58 0 87 -12 99 -43 7 -19
9 -16 9 16 l1 37 -122 -1 c-84 0 -116 -3 -100 -9z"/>
<path d="M1390 598 c0 -9 19 -13 60 -13 41 0 60 4 60 13 0 8 -19 12 -60 12
-41 0 -60 -4 -60 -12z"/>
</g>
</svg>
